<svg xmlns="http://www.w3.org/2000/svg" width="296.35" height="162.23" viewBox="0 0 296.35 162.23"><defs><style>.a{fill:#1d4259;}.b{fill:#0f222c;}.c{fill:#e8bf7c;}.d{fill:#d0a569;}.e{fill:#ab7a45;}.f{fill:#d0a56b;}.g{fill:#986e3e;}.h{fill:#a87944;}.i{fill:#ff524f;}.j{fill:#f2f2f2;}.k{fill:#ce3836;}.l{fill:#222846;}.m{fill:#1b3241;}</style></defs><g transform="translate(0.03 0)"><path class="a" d="M296.32,158.44c0,2.09-74.4,3.79-166.17,3.79S0,160.53,0,158.44s38.39-3.78,130.15-3.78S296.32,156.36,296.32,158.44Z"/><path class="b" d="M49.45,117.67a21.268,21.268,0,1,1,0,42.535l-5.9-.005V117.67Z"/><path class="b" d="M160.45,117.67a21.268,21.268,0,1,1,0,42.535l-5.9-.005V117.67Z"/><path class="b" d="M49.45,117.67a21.268,21.268,0,1,1,0,42.535l-5.9-.005V117.67Z"/><path class="b" d="M68.41,135a21.26,21.26,0,1,1,21.263,21.27A21.26,21.26,0,0,1,68.41,135Z"/><path class="b" d="M209.08,113.7a21.268,21.268,0,1,1,0,42.535l-5.9-.005V113.7Z"/><path class="b" d="M181.92,135a21.26,21.26,0,1,1,21.263,21.27A21.26,21.26,0,0,1,181.92,135Z"/><rect class="c" width="109.05" height="37.66" transform="translate(263.6 37.66) rotate(180)"/><rect class="c" width="87.24" height="87.24" transform="translate(198.17 124.81) rotate(180)"/><rect class="d" width="13.4" height="87.24" transform="translate(198.17 74.48) rotate(90)"/><rect class="e" width="18.2" height="13.4" transform="translate(163.65 87.89) rotate(180)"/><rect class="d" width="13.4" height="87.24" transform="translate(161.25 124.81) rotate(180)"/><rect class="f" width="65.43" height="87.24" transform="translate(263.6 124.81) rotate(180)"/><rect class="e" width="13.4" height="65.43" transform="translate(263.6 74.49) rotate(90)"/><rect class="g" width="18.2" height="13.4" transform="translate(239.72 87.89) rotate(180)"/><path class="h" d="M198.17,37.66H263.6L296.32,5.14H230.89Z"/><rect class="e" width="13.4" height="87.24" transform="translate(223.92 37.56)"/><path class="g" d="M223.92,37.56h13.4L269.74,5.14h-13.4Z"/><path class="f" d="M198.17,37.56H110.93L78.22,4.85h87.24Z"/><path class="e" d="M161.25,37.56h-13.4L115.14,4.85h13.4Z"/><path class="a" d="M0,124.8H194a4.2,4.2,0,0,1,4.2,4.2v5.74a4.2,4.2,0,0,1-4.2,4.2H0Z" transform="translate(198.17 263.74) rotate(180)"/><path class="i" d="M4.2,124.8H110.93V37.56H57.45A31.46,31.46,0,0,0,31.4,51.4L9.58,83.69a31.43,31.43,0,0,0-5.38,17.6Z"/><path class="j" d="M85.31,89.18V47.38H57.45A21.58,21.58,0,0,0,39.54,56.9L17.72,89.18Z"/><rect class="k" width="12.85" height="87.24" transform="translate(110.93 124.81) rotate(180)"/><path class="b" d="M153.57,113.7a25.24,25.24,0,0,1,25.23,25.23H128.34a25.23,25.23,0,0,1,25.23-25.23Z"/><path class="b" d="M42.57,113.7A25.24,25.24,0,0,1,67.8,138.93H17.34A25.24,25.24,0,0,1,42.57,113.7Z"/><path class="l" d="M133.29,138.93a21.26,21.26,0,1,1,21.263,21.27,21.26,21.26,0,0,1-21.263-21.27Z"/><circle class="j" cx="10.46" cy="10.46" r="10.46" transform="matrix(0.16, -0.987, 0.987, 0.16, 142.553, 147.598)"/><circle class="l" cx="21.26" cy="21.26" r="21.26" transform="translate(22.29 117.67)"/><circle class="j" cx="10.46" cy="10.46" r="10.46" transform="matrix(0.16, -0.987, 0.987, 0.16, 31.555, 147.593)"/><rect class="k" width="9.11" height="8.67" transform="translate(207.28 118.03) rotate(180)"/><rect class="i" width="9.11" height="8.67" transform="translate(198.17 118.03) rotate(180)"/><rect class="k" width="9.11" height="8.67" transform="translate(263.6 118.03) rotate(180)"/><path class="k" d="M71.6,92.68H85.31v1.91a2.66,2.66,0,0,1-2.66,2.66H74.26a2.67,2.67,0,0,1-2.67-2.67v-1.9Z"/><path class="l" d="M71.6,92.68H85.31v.78a2.66,2.66,0,0,1-2.66,2.66H74.26a2.67,2.67,0,0,1-2.67-2.67v-.78Z"/><path class="j" d="M12.48,113.7a8.28,8.28,0,0,0-8.28-8.28V122A8.29,8.29,0,0,0,12.48,113.7Z"/><rect class="m" width="73.82" height="14.13" rx="4.2" transform="translate(193.97 124.8)"/><path class="j" d="M205.73,131.87a3,3,0,1,0-3,3,3,3,0,0,0,3-3Z"/><path class="j" d="M210.9,131.87a1.5,1.5,0,1,0-1.5,1.5,1.5,1.5,0,0,0,1.5-1.5Z"/><path class="j" d="M256,131.87a3,3,0,1,0,3-3A3,3,0,0,0,256,131.87Z"/><path class="j" d="M250.87,131.87a1.5,1.5,0,1,0,1.5-1.5,1.5,1.5,0,0,0-1.5,1.5Z"/></g></svg>