<svg xmlns="http://www.w3.org/2000/svg" width="298.315" height="197.267" viewBox="0 0 298.315 197.267"><defs><style>.a{fill:#fadcc2;}.a,.ab,.b,.g,.h,.i,.j,.k,.l,.m,.n,.o,.p,.q,.r,.s,.t,.u,.v,.w,.x,.z{fill-rule:evenodd;}.b{fill:#282a3a;}.c,.u{fill:#f4a23b;}.aa,.d,.r{fill:#fac74c;}.e,.v{fill:#ee7d3a;}.f{fill:#f9e7d8;}.g{fill:#4b4c5b;}.h{fill:#1d4259;}.i{fill:#871c34;}.j{fill:#1a7eab;}.k{fill:#006a93;}.l{fill:#3188b9;}.m{fill:#177ca8;}.n{fill:#d82c47;}.o{fill:#e8685b;}.p{fill:#e74862;}.q{fill:#fff;}.s{fill:#0a1731;}.t,.y{fill:#00030c;}.w{fill:#f4ad85;}.x{fill:#ef8871;}.z{fill:#00081a;}.aa{stroke:#f4ad85;stroke-miterlimit:22.93;stroke-width:0.22px;}.ab,.ac{fill:#f2963a;}</style></defs><g transform="translate(-34 23.003)"><g transform="translate(34 -23)"><path class="a" d="M328.949,192.434a.634.634,0,0,1,1.268,0v2.848a.634.634,0,1,1-1.268,0Zm-4.321,2.312a.635.635,0,0,1,.9-.9l2.014,2.019a.631.631,0,0,1-.892.893Zm-1.414,4.692a.634.634,0,1,1,0-1.268h2.848a.634.634,0,0,1,0,1.268Zm2.312,4.316a.634.634,0,0,1-.9,0,.644.644,0,0,1,0-.9l2.019-2.014a.634.634,0,1,1,.892.9Zm4.692,1.419a.634.634,0,0,1-1.268,0v-2.848a.634.634,0,0,1,1.268,0Zm4.316-2.317a.635.635,0,1,1-.9.9l-2.014-2.014a.634.634,0,0,1,0-.9.644.644,0,0,1,.9,0Zm1.419-4.687a.634.634,0,1,1,0,1.268H333.1a.634.634,0,0,1,0-1.268Zm-2.317-4.321a.644.644,0,0,1,.9,0,.634.634,0,0,1,0,.9l-1.995,2.029a.634.634,0,1,1-.9-.893Z" transform="translate(-165.256 -98.259)"/><path class="b" d="M321.015,304.608a.7.7,0,1,1-1.4,0v-53.4a15.919,15.919,0,1,1,31.837,0v53.4a.7.7,0,0,1-1.4,0v-53.4a14.518,14.518,0,1,0-29.036,0Z" transform="translate(-163.734 -120.539)"/><path class="b" d="M323.745,380.2h54.706a1.2,1.2,0,0,1,1.195,1.195h0a1.2,1.2,0,0,1-1.195,1.195H323.745a1.2,1.2,0,0,1-1.195-1.195h0A1.2,1.2,0,0,1,323.745,380.2Z" transform="translate(-165.24 -194.775)"/><path class="c" d="M350.687,321.87h39.387a1.307,1.307,0,0,1,1.307,1.307v24.478a1.307,1.307,0,0,1-1.307,1.307H350.687a1.307,1.307,0,0,1-1.307-1.307V323.172a1.3,1.3,0,0,1,1.307-1.3Z" transform="translate(-178.985 -164.893)"/><rect class="d" width="19.04" height="27.092" rx="3.12" transform="translate(157.558 156.977)"/><path class="d" d="M388.824,339.82h10.013a1.629,1.629,0,0,1,1.629,1.629v4.136a1.634,1.634,0,0,1-1.634,1.634H388.824a1.634,1.634,0,0,1-1.634-1.634v-4.136a1.634,1.634,0,0,1,1.634-1.629Z" transform="translate(-198.355 -174.089)"/><rect class="d" width="2.287" height="27.092" transform="translate(177.847 156.977)"/><rect class="d" width="2.287" height="27.092" transform="translate(181.929 156.977)"/><rect class="d" width="2.282" height="27.092" transform="translate(204.393 156.977)"/><rect class="d" width="2.287" height="27.092" transform="translate(208.475 156.977)"/><rect class="c" width="11.427" height="6.369" rx="2.88" transform="translate(161.363 166.248)"/><rect class="e" width="25.775" height="16.626" rx="1.64" transform="translate(175.223 140.351)"/><rect class="c" width="11.685" height="16.626" rx="1.92" transform="translate(167.347 140.351)"/><rect class="f" width="5.097" height="7.077" transform="translate(187.148 140.351)"/><path class="g" d="M319.345,377.42h27.882a1.2,1.2,0,0,1,1.195,1.19h0a1.2,1.2,0,0,1-1.195,1.195H319.345a1.2,1.2,0,0,1-1.195-1.195h0A1.2,1.2,0,0,1,319.345,377.42Z" transform="translate(-162.986 -193.351)"/><path class="b" d="M369.635,377.42h33.891a1.2,1.2,0,0,1,1.195,1.19h0a1.2,1.2,0,0,1-1.195,1.195H369.635a1.2,1.2,0,0,1-1.195-1.195h0a1.2,1.2,0,0,1,1.195-1.19Z" transform="translate(-188.749 -193.351)"/><path class="b" d="M326.449,388.288a2.019,2.019,0,1,0-2.019-2.014A2.019,2.019,0,0,0,326.449,388.288Z" transform="translate(-166.203 -196.85)"/><path class="b" d="M359.564,388.288a2.019,2.019,0,1,0-2.014-2.014,2.019,2.019,0,0,0,2.014,2.014Z" transform="translate(-183.171 -196.85)"/><path class="b" d="M396.879,388.288a2.019,2.019,0,1,0-2.019-2.014A2.019,2.019,0,0,0,396.879,388.288Z" transform="translate(-202.284 -196.85)"/><path class="b" d="M430.014,388.288A2.019,2.019,0,1,0,428,386.274a2.019,2.019,0,0,0,2.014,2.014Z" transform="translate(-219.262 -196.85)"/><path class="h" d="M3.472,392H294.843c1.914,0,3.464.6,3.472,1.348h0c-.005.744-1.556,1.347-3.472,1.35h-11.7c-1.077,0-1.951.339-1.951.757h0c0,.418.873.757,1.951.757h4.287c1.337,0,2.425.418,2.439.937h0c-.016.518-1.1.935-2.439.935H11.3c-1.326-.005-2.4-.421-2.414-.935h0c.013-.515,1.086-.932,2.414-.937H14.67c1.077,0,1.951-.339,1.951-.757h0c0-.418-.873-.757-1.951-.757H3.453c-1.9-.007-3.44-.605-3.453-1.344H0C0,392.608,1.551,392,3.472,392Zm1.814,6.07c1.277,0,2.311-.4,2.317-.9v-.076c-.005-.5-1.04-.9-2.317-.9h0c-1.278,0-2.314.4-2.317.9v.076c0,.5,1.038.9,2.317.9Z" transform="translate(0 -200.82)"/><path class="i" d="M243.525,204.175l.317.59s0,.488-1.385.761-27.341,1.814-29.477,1.375a5.35,5.35,0,0,1-3.75-2.336c-.4-.785.693-2.092.693-2.092S233.839,196.781,243.525,204.175Z" transform="translate(-107.143 -102.655)"/><path class="j" d="M214.179,188.43l-1.419,2.926s3.9,31.594,4.95,38.012,9.949,14.6,25.575,36.466l3.121,3.624a.893.893,0,0,0,.893-.024c.415-.293,2.99-3.258,2.99-3.258a1.273,1.273,0,0,0-.068-1.5c-.576-.824-17.967-33.306-20.586-38.943,0,0,3.98-35.232,2.687-39.3S214.179,188.43,214.179,188.43Z" transform="translate(-108.996 -94.791)"/><path class="k" d="M214.179,188.447l-1.419,2.926s.258,2.1.663,5.316c1.775,0,5.482.054,7.291.756,2.317.907,2.726,10.73-2.97,32.111.795,4.321,5.106,9.481,12.6,19.06.234-3.155.741-10.008.834-10.242s1.463-.863,2.439.824,11.125,20.269,11.9,22c.693,1.531,2.092,3.838-1.3,5.745l2.195,2.551a.893.893,0,0,0,.892-.024c.415-.293,2.99-3.258,2.99-3.258a1.273,1.273,0,0,0-.068-1.5c-.576-.824-17.967-33.305-20.586-38.943,0,0,3.98-35.232,2.687-39.3S214.179,188.447,214.179,188.447Z" transform="translate(-108.996 -94.809)"/><path class="l" d="M248.81,189.507l1.834,3.994a55.527,55.527,0,0,1-5.238,18.757c-4.541,8.945-8.554,17.991-9.427,19.645s0,5.54-1.57,15.168-4.233,27.18-4.36,28.287-.615.975-1.331.975H225.3a1.39,1.39,0,0,1-1.5-1.292c0-.678,1.463-42.372,1.678-45.771s3.009-14.246,4.058-20.484,2.707-15.46-.873-20.615S248.81,189.507,248.81,189.507Z" transform="translate(-114.651 -95.381)"/><path class="m" d="M248.81,189.522l1.834,3.994a55.527,55.527,0,0,1-5.238,18.757c-4.541,8.945-8.554,17.991-9.427,19.645s0,5.54-1.57,15.168-4.233,27.18-4.36,28.287-.615.975-1.331.975H225.3a1.39,1.39,0,0,1-1.5-1.292c0-.083,0-.78.059-1.951,3.009-.532,4.5-1.312,4.916-3.57.488-2.721,3.707-35.227,3.624-36.051s-1.278-.975-.946-1.892,5.765-9.315,8.735-15.9,3.707-10.837,2.595-13.017-5.891-4.658-8.242-4.2c-1.663.322-3.248,2.595-4.028,3.9.488-4.024.585-8.291-.6-11.656.234-1.522.512-3.038.8-4.5C236.129,186.069,248.81,189.522,248.81,189.522Z" transform="translate(-114.651 -95.396)"/><path class="n" d="M208.589,72s-5.365,2.229-7.433,3.9-9.14,24.922-10.817,29.262A2.559,2.559,0,0,0,191.09,108a4.721,4.721,0,0,0,5.145.166c1.37-.912,3.516-8.018,3.516-8.018Z" transform="translate(-97.431 -36.887)"/><path class="o" d="M240.817,48l-.122,2.926v6.96a1.792,1.792,0,0,0,1.595,1.77,4.2,4.2,0,0,1-2.185,6.794c-1.917.3-11.168-1.951-11.793-2.468-.429-.371,2.341-3.726,2.087-4.8.2-.054-.029,0,.171-.063a3.2,3.2,0,0,0,1.346-.775c1.01-1.1.975-6.009-.044-7.316S240.817,48,240.817,48Z" transform="translate(-116.94 -24.592)"/><path class="p" d="M218.854,70.5a23.282,23.282,0,0,1,2.326-.536c.712,3.736,4.589,7.477,10.305.585a38.162,38.162,0,0,1,10.666,3.707c.029.044,1.658,2.673,1.658,4.267,0,1.361-1.678,11.417-1.692,20.523a73.213,73.213,0,0,0-1.161,12.88c0,6.589,2.439,16.933,2.375,26.053-5.648-.688-30.5-5.2-34.627-.2-.312-.288-.824-1.522-.39-3.414C213.464,111.922,202.789,76.271,218.854,70.5Z" transform="translate(-106.632 -35.841)"/><path class="n" d="M243.306,176.553a109.983,109.983,0,0,1,1.292,14.977c-1.361-.166-3.843-.556-6.882-.975.234-2.995-1.229-9.637-2.663-9.637H212.7a3.316,3.316,0,0,0-2.078.736c.185-1.707.312-3.453.4-5.233,4.438-.634,18.738-1.756,24.5-1.868C240.068,174.461,242.062,175.436,243.306,176.553Z" transform="translate(-107.899 -89.421)"/><path class="q" d="M232.38,70.228a9.3,9.3,0,0,1,1.185-.268c.488,3.58,4.55,6.779,10.305.585a12.622,12.622,0,0,1,2.122.488c-4.531,7.584-14.075,8.193-13.656-.644A1.175,1.175,0,0,1,232.38,70.228Z" transform="translate(-119.017 -35.841)"/><path class="q" d="M243.874,81.254a.239.239,0,0,1,.332-.059.229.229,0,0,1,.059.327c-2.068,3.009-.946,4.906.254,6.94.946,1.595,1.951,3.273,1.6,5.6a.239.239,0,0,1-.268.2.244.244,0,0,1-.2-.273c.307-2.165-.639-3.77-1.541-5.3C242.83,86.536,241.635,84.492,243.874,81.254Z" transform="translate(-124.293 -41.575)"/><path class="q" d="M233.509,81.129a.239.239,0,0,1,.234-.239.244.244,0,0,1,.239.234s.21,8.847-5.594,8.452a.237.237,0,1,1,.034-.473C233.7,89.464,233.509,81.153,233.509,81.129Z" transform="translate(-116.889 -41.441)"/><path class="q" d="M227.555,98.15a.585.585,0,1,0-.585-.585A.585.585,0,0,0,227.555,98.15Z" transform="translate(-116.275 -49.684)"/><path class="q" d="M248.63,108.01a.585.585,0,1,0-.58-.58.585.585,0,0,0,.58.58Z" transform="translate(-127.074 -54.735)"/><path class="r" d="M284.647,360.96s-6.252,8.871-7.223,8.671l-.975-.717c-.385-.288-.639-1.092-.2-2.439S277.716,362.3,278,361.4s-.78-4.843-.878-5.365,1.917-1.112,2.3-1.278.649.337,1.019.839S284.647,360.96,284.647,360.96Z" transform="translate(-141.402 -181.724)"/><path class="s" d="M280.292,371.613l10.383-13.919a.376.376,0,0,0-.078-.522l-.863-.649a.38.38,0,0,0-.527.078l-10.383,13.914a.38.38,0,0,0,.078.527l.863.644a.385.385,0,0,0,.527-.073Z" transform="translate(-142.802 -182.609)"/><path class="t" d="M280.292,381.267l3.526-4.731a.376.376,0,0,0-.073-.522l-.868-.644a.371.371,0,0,0-.522.073l-3.531,4.726a.38.38,0,0,0,.078.527l.863.644A.385.385,0,0,0,280.292,381.267Z" transform="translate(-142.802 -192.262)"/><path class="u" d="M278.8,357.639c.2.078,1.37.273,1.346.727a6,6,0,0,1-.4,2.5c-.4.551-1.258,1.678-2.321,3.107s-1.322.732-1.322.732a1.2,1.2,0,0,0,.4.795l.975.717,10.383-13.909a4.549,4.549,0,0,0-1.853-2.3c-1.609-1.2-2.478-1.951-2.926-1.951s-.419.3-.419.3c.127,1.78-1.522,2.59-2.4,2.995l-.273.122c-.746.3-1.3.424-1.39,1.127-.1.785-.171,3.76-.185,4.233S278.6,357.561,278.8,357.639Z" transform="translate(-141.444 -178.31)"/><path class="v" d="M277.42,365.681l.722.536,10.383-13.909a4.549,4.549,0,0,0-1.853-2.3c-1.609-1.2-2.478-1.951-2.926-1.951.541.351.912,1.058.556,1.536l-2.068,2.775c-.761,1.014-.371,1.629-.371,1.629s.634,1.273,1.078,2.18a2.479,2.479,0,0,1,.137,2.341l-4.994,6.686a1,1,0,0,1-.663.473Z" transform="translate(-142.12 -178.31)"/><path class="q" d="M280.131,358.024a.137.137,0,0,0,.1-.18.171.171,0,0,0-.2-.083l-1.307.39-.146-.049.083.356h.059l1.3.41a.176.176,0,0,0,.21-.083.137.137,0,0,0-.1-.176l-.932-.293.936-.278Zm-.863,3.263a1.745,1.745,0,0,0-.054-.312l.907.288a.127.127,0,0,1,.093.176.171.171,0,0,1-.21.083Zm-.059-.327a1.388,1.388,0,0,0-.049-.278l.853-.254a.176.176,0,0,1,.21.083.132.132,0,0,1-.1.176Zm-.215-1.1c-.034-.146-.063-.293-.1-.434l1.131-.332a.181.181,0,0,1,.21.083.132.132,0,0,1-.1.176l-.936.278.932.293a.141.141,0,0,1,.1.18.176.176,0,0,1-.21.078Z" transform="translate(-142.71 -183.276)"/><rect class="e" width="4.906" height="8.154" rx="1.42" transform="translate(110.436 180.947)"/><path class="r" d="M222.72,368.65l.4-1.219c.063-.176.244-.844-.663-.844h-2.2a1.868,1.868,0,0,0-1.9,1.327c-.371,1.122-1.024,3.131-1.249,3.819s-3.414,2.385-3.9,2.9a2.053,2.053,0,0,0-.6,1.219c.029.117,6.413.839,7.316.429s1.873-4.306,1.873-4.306Z" transform="translate(-108.914 -187.8)"/><path class="u" d="M218.082,378.168l.644-.239a1.4,1.4,0,0,0,.454-.663c.146-.439.356-1.088.488-1.439s.488-.4.7-1.024,1.141-3.487,1.4-4.282-.561-1.273-1.049-1.741-1.522-.039-1.824.888-.639,1.951-.9,2.746-.224,1.122.19,1.5.7.673.829.775-.112.6-.434.975a3.78,3.78,0,0,1-2.926,1.224H212.5c-.81,0-.975-.512-.727-1.244s3.531-1.278,4.072-2.926.912-2.79,1.034-3.16a.458.458,0,0,0-.244-.585c-.107-.083-.361,0-1.024.673s-.693,1.175-1.068,2.322a6.252,6.252,0,0,1-2.58,2.97c-1.185.79-2.258,1.419-2.77,3S216.965,379.767,218.082,378.168Z" transform="translate(-107.158 -188.827)"/><path class="v" d="M220.525,374.418l1.244-3.794c.258-.795-.561-1.273-1.049-1.741a.429.429,0,0,0-.117-.093,1,1,0,0,1,.088,1.01l-.732,2.243a2.034,2.034,0,0,0,.566,2.375Zm-4.419-5.116c-.127.107-.283.249-.488.439-.658.658-.693,1.175-1.068,2.321a4.536,4.536,0,0,1-1.019,1.653h0a14.1,14.1,0,0,0,1.658-1.751,27.456,27.456,0,0,0,.9-2.663Zm-5.262,6.511a4.35,4.35,0,0,0-1.629,2.219c-.458,1.39,5.891,1.756,8.189.736l-1.8.317,1.151-.883s-.044-.775-.6-.775h-4.58C210.971,377.427,210.405,377.183,210.844,375.813Z" transform="translate(-107.168 -188.93)"/><path class="s" d="M217.023,389.8H207.5a.3.3,0,0,1-.288-.429l.4-1.234a.644.644,0,0,1,.571-.429h9.52a.3.3,0,0,1,.288.429l-.4,1.234a.649.649,0,0,1-.566.429Z" transform="translate(-106.138 -198.622)"/><path class="t" d="M227.622,389.8h-6.584a.3.3,0,0,1-.288-.429l.4-1.234a.639.639,0,0,1,.566-.429h6.589a.3.3,0,0,1,.288.429l-.4,1.234a.654.654,0,0,1-.571.429Z" transform="translate(-113.075 -198.622)"/><path class="q" d="M222.7,370.379c-.078-.024-.1-.107-.039-.18a.244.244,0,0,1,.244-.088l1.214.415,1.488-.415c.093-.024.18,0,.185.088a.186.186,0,0,1-.161.18l-1.063.3.868.3c.083.029.1.107.044.185a.234.234,0,0,1-.244.083l-1.214-.41-1.488.41c-.1.029-.18,0-.19-.083a.21.21,0,0,1,.166-.185l1.063-.3Zm2,2.512c.093-.029.18,0,.185.083a.2.2,0,0,1-.161.185l-1.063.3.868.3c.083.024.1.107.044.18a.244.244,0,0,1-.244.088l-1.214-.415-1.463.415c-.1.024-.18,0-.19-.088a.2.2,0,0,1,.161-.18l1.068-.3-.873-.3c-.078-.029-.1-.107-.039-.185a.229.229,0,0,1,.244-.083l1.214.415Zm.439-1.375c.093-.029.18,0,.185.088a.186.186,0,0,1-.161.18l-1.068.3.873.3c.083.029.1.107.044.18a.234.234,0,0,1-.244.088l-1.214-.415-1.488.415c-.1,0-.18,0-.19-.088s.068-.151.166-.18l1.063-.3-.873-.3c-.078,0-.1-.107-.039-.18a.224.224,0,0,1,.244-.088l1.214.415Z" transform="translate(-113.453 -189.602)"/><path class="n" d="M274.992,78c1.951.619,6.052,4.916,6.794,7.964s4.389,15.816,4.2,21.918H275.773s-2.556-10.959-2.224-17.221A123.245,123.245,0,0,1,274.992,78Z" transform="translate(-140.122 -39.96)"/><path class="o" d="M219.461,37l-.224.039h0a3.038,3.038,0,1,0,2.536.61c.073.9-.068,2-1.21,2.117l.034-1.751A1.049,1.049,0,0,0,219.461,37Z" transform="translate(-111.078 -18.952)"/><path class="o" d="M263.546,37l.224.039h0a3.038,3.038,0,1,1-2.536.61c-.073.9.068,2,1.21,2.117l-.034-1.79A1.049,1.049,0,0,1,263.546,37Z" transform="translate(-133.25 -18.952)"/><path class="w" d="M233.778,5.87h0a10.427,10.427,0,0,0-10.4,10.393v9.452a10.427,10.427,0,0,0,10.4,10.4h0a10.427,10.427,0,0,0,10.388-10.4V16.263A10.427,10.427,0,0,0,233.778,5.87Z" transform="translate(-114.436 -3.009)"/><path class="x" d="M232.923,36.831a10.315,10.315,0,0,0,2.248.249h0a10.427,10.427,0,0,0,10.388-10.4V17.23a10.432,10.432,0,0,0-6.072-9.447,17.479,17.479,0,0,0-5.516.58c-7,1.9-7.872,9.93-7.872,9.93h11.617c2.517,0,5.277.083,5.277,4.877s.6,13.241-8.291,13.441a6.008,6.008,0,0,0-1.78.219Z" transform="translate(-115.83 -3.975)"/><path class="q" d="M239.2,51.889a2.687,2.687,0,1,0,5.365.21h0a.488.488,0,0,0-.449-.488l-4.433-.171a.488.488,0,0,0-.488.444Z" transform="translate(-122.536 -26.354)"/><path class="q" d="M241.09,55.944a2.682,2.682,0,0,0,1.663.663,2.716,2.716,0,0,0,1.439-.351,1.8,1.8,0,0,0-3.1-.312Z" transform="translate(-123.509 -28.277)"/><path class="q" d="M245.016,51.646l-4.175-.166a.975.975,0,0,0,.419,1.049,11.914,11.914,0,0,0,3.619-.054A1.634,1.634,0,0,0,245.016,51.646Z" transform="translate(-123.367 -26.374)"/><path class="o" d="M255.031,47.69a1.331,1.331,0,1,0,1.3,1.356,1.331,1.331,0,0,0-1.3-1.356Z" transform="translate(-129.954 -24.432)"/><path class="o" d="M231.571,47.24a1.331,1.331,0,1,0,1.3,1.346A1.331,1.331,0,0,0,231.571,47.24Z" transform="translate(-117.935 -24.202)"/><path class="t" d="M230.939,35.819a.364.364,0,0,1-.322-.654,3.453,3.453,0,0,1,3.243,0,.361.361,0,0,1,.127.488.371.371,0,0,1-.488.132A2.7,2.7,0,0,0,230.939,35.819Z" transform="translate(-118.04 -17.809)"/><path class="t" d="M255.477,35.855a2.7,2.7,0,0,0-2.536,0,.376.376,0,0,1-.488-.132.366.366,0,0,1,.132-.488,3.453,3.453,0,0,1,3.243,0,.371.371,0,1,1-.332.658Z" transform="translate(-129.307 -17.845)"/><rect class="y" width="1.795" height="2.965" rx="0.897" transform="translate(124.146 19.253)"/><rect class="y" width="1.795" height="2.965" rx="0.897" transform="translate(113.133 19.253)"/><path class="z" d="M225.223,11.216a2.439,2.439,0,0,0-.922,2.014c0,2.234-.424,4.009-1.848,4.009V18.99c0,.975-.1,1.951-1.024,1.951a5.03,5.03,0,0,0-.639-2.926V15.381a1.463,1.463,0,0,1-.732-1.19,2.868,2.868,0,0,1,.288-1.424,3.414,3.414,0,0,1,.083-4.428,2.926,2.926,0,0,1,.268-1.731.873.873,0,0,1,1.068-.41s.2-4.141,4.267-3.872a1.653,1.653,0,0,1,2.512-.824,7.256,7.256,0,0,1,8.9.122s1.6-.824,1.726.975c0,0,3.151,0,3.258,3.668a5.436,5.436,0,0,1,1.151,5.365s.541,1.648-.717,2.019v4.389a4.964,4.964,0,0,0-.649,2.931c-.927,0-1.019-.975-1.019-1.951v-1.78c-1.429,0-1.853-1.775-1.853-4.009a2.439,2.439,0,0,0-.946-2.014c.7,1.312.356,2.321-1.429.7,1.17,2.307-2.926,2.3-4.1.127,0,0-.346,1.2-.975,1s-.654-1.644-.654-1.644c-1.019,2.092-3.941,2.307-4.146.073C226.321,12.806,224.521,12.723,225.223,11.216Z" transform="translate(-112.485 0)"/><path class="s" d="M226.38,6.016a3.33,3.33,0,0,1,.873-.683c5.535,6.4,13.329,1.3,15.4-.254a.871.871,0,0,1,0,.117,3.3,3.3,0,0,1,3.068,2.385c-1.429,2.112-5.311,4.136-11.7,3.555a9.374,9.374,0,0,1-7.633-5.121Z" transform="translate(-115.973 -2.604)"/><path class="t" d="M225.233,17.816a2.439,2.439,0,0,0-.922,2.014c0,2.234-.424,4.009-1.848,4.009V25.59c0,.975-.1,1.951-1.024,1.951a5.03,5.03,0,0,0-.639-2.926V21.981a1.463,1.463,0,0,1-.732-1.19,2.868,2.868,0,0,1,.288-1.424,3.555,3.555,0,0,1-.678-2.99,1.551,1.551,0,0,0,.975,1.585c1.092.351,2.375-1.536,2.375-1.536s-.19,1.37.346,1.6,1.951-1.229,1.951-1.229.244-.346.263.117-.327,2.024.775,1.887c-.8.488-1.683.141-1.156-.975Zm17.206-4.936a5.436,5.436,0,0,1,1.151,5.365s.541,1.648-.717,2.019v4.389a4.881,4.881,0,0,0-.649,2.916c-.927,0-1.019-.975-1.019-1.951v-1.78c-1.429,0-1.853-1.775-1.853-4.009a2.439,2.439,0,0,0-.946-2.014c.561,1.053.449,1.912-.541,1.366,0,0,.541.112.522-.322A2.965,2.965,0,0,0,237.9,17.6c-.156-.215.9.137,1.463.258S242.546,15.592,242.439,12.88Z" transform="translate(-112.494 -6.6)"/><rect class="c" width="41.996" height="27.092" rx="2.68" transform="translate(104.74 63.381)"/><rect class="aa" width="19.04" height="27.092" rx="3.12" transform="translate(91.903 63.381)"/><rect class="d" width="13.275" height="7.399" rx="3.35" transform="translate(123.18 72.135)"/><rect class="d" width="2.287" height="27.092" transform="translate(112.192 63.381)"/><rect class="d" width="2.282" height="27.092" transform="translate(116.274 63.381)"/><rect class="d" width="2.287" height="27.092" transform="translate(138.738 63.381)"/><rect class="d" width="2.287" height="27.092" transform="translate(142.82 63.381)"/><rect class="c" width="11.427" height="6.369" rx="2.88" transform="translate(95.708 72.652)"/><rect class="e" width="25.775" height="16.626" rx="1.64" transform="translate(109.568 46.755)"/><rect class="c" width="11.685" height="16.626" rx="1.92" transform="translate(101.692 46.755)"/><rect class="f" width="5.097" height="7.077" transform="translate(121.493 46.755)"/><rect class="d" width="12.349" height="7.969" rx="0.79" transform="translate(112.309 38.786)"/><path class="u" d="M240.6,79.53h-.41V87.5h.41Zm-.824,0h-.415V87.5h.415Zm-.829,0h-.415V87.5h.415Zm-.824,0h-.415V87.5h.415Zm-.829,0h-.415V87.5h.415Zm-.824,0h-.415V87.5h.415Zm-.829,0h-.415V87.5h.415Zm-.829,0h-.41V87.5h.41Zm-.824,0h-.415V87.5h.415Zm-.829,0h-.41V87.5h.41Zm-.824,0h-.415V87.5h.415Zm-.829,0h-.4V87.5h.415V79.53Zm-.824,0h-.063a.38.38,0,0,0-.366.385v7.2a.38.38,0,0,0,.366.385h.049Z" transform="translate(-117.956 -40.744)"/><rect class="e" width="5.599" height="7.969" rx="0.92" transform="translate(119.839 38.786)"/><path class="ab" d="M256.32,87.5a.449.449,0,0,0,.429-.449V79.984a.444.444,0,0,0-.429-.444Z" transform="translate(-131.311 -40.749)"/><rect class="ac" width="0.429" height="7.969" transform="translate(124.146 38.786)"/><rect class="ac" width="0.429" height="7.969" transform="translate(123.287 38.786)"/><rect class="ac" width="0.429" height="7.969" transform="translate(122.424 38.786)"/><rect class="ac" width="0.429" height="7.969" transform="translate(121.561 38.786)"/><rect class="ac" width="0.429" height="7.969" transform="translate(120.702 38.786)"/><path class="ab" d="M246.149,79.54a.444.444,0,0,0-.429.444v7.1a.449.449,0,0,0,.429.449Z" transform="translate(-125.881 -40.749)"/><path class="x" d="M190.2,176.858a3.389,3.389,0,0,1,.532,1.951c.044-.41.824-2.926,1.6-2.087a2.04,2.04,0,0,1,.244,2.053s.571-2.112,1.229-1.566a1.1,1.1,0,0,1,.327,1.278c.151-.449,1.307-1.156,1.512.171a4.68,4.68,0,0,1-.58,2.926.722.722,0,0,1-.975-.117,1.463,1.463,0,0,1-.18-.351c-.293,1.058-1.136,1.926-1.726.171-.488.61-1.6,1.7-1.858-.219,0,0,.137-.219-.39.263-1.049.975-1.429,0-1.38-1.463C188.624,177.575,189.512,176.1,190.2,176.858Z" transform="translate(-96.594 -90.448)"/><path class="x" d="M291.88,178.771a3.2,3.2,0,0,0-.517,1.951c-.029-.41-.844-2.926-1.614-2.083a2.04,2.04,0,0,0-.234,2.053s-.58-2.112-1.234-1.566a1.092,1.092,0,0,0-.322,1.278c-.156-.449-1.312-1.156-1.512.171a4.709,4.709,0,0,0,.6,2.926.722.722,0,0,0,.975-.117,1.569,1.569,0,0,0,.176-.351c.3,1.058,1.151,1.951,1.731.171.488.61,1.609,1.7,1.858-.219,0,0-.141-.219.385.263,1.058.975,1.434,0,1.38-1.463C293.465,179.488,292.553,178.01,291.88,178.771Z" transform="translate(-146.728 -91.429)"/><path class="a" d="M184.879,51.774a.634.634,0,1,1,1.268,0v2.853a.634.634,0,1,1-1.268,0Zm-4.321,2.317a.644.644,0,0,1,0-.9.634.634,0,0,1,.9,0l2.014,2.014a.634.634,0,0,1-.893.9Zm-1.414,4.687a.634.634,0,0,1,0-1.268h2.848a.634.634,0,0,1,0,1.268Zm2.312,4.321a.635.635,0,1,1-.9-.9l2.019-2.014a.631.631,0,0,1,.893.893Zm4.692,1.414a.634.634,0,0,1-1.268,0V61.665a.634.634,0,1,1,1.268,0Zm4.306-2.312a.634.634,0,0,1,0,.9.644.644,0,0,1-.9,0l-2.014-2.019a.634.634,0,1,1,.9-.893Zm1.419-4.692a.634.634,0,1,1,0,1.268h-2.848a.634.634,0,0,1,0-1.268Zm-2.317-4.316a.635.635,0,1,1,.9.9L188.44,56.1a.634.634,0,0,1-.9,0,.644.644,0,0,1,0-.9Z" transform="translate(-91.45 -26.2)"/></g></g></svg>